<svg width="39" height="39" viewBox="0 0 39 39" fill="none" xmlns="http://www.w3.org/2000/svg">
<path d="M19.5 30.7354C20.5517 30.7354 21.4043 29.8828 21.4043 28.8311C21.4043 27.7793 20.5517 26.9268 19.5 26.9268C18.4483 26.9268 17.5957 27.7793 17.5957 28.8311C17.5957 29.8828 18.4483 30.7354 19.5 30.7354Z" fill="black"/>
<path d="M19.5 0C8.7229 0 0 8.72145 0 19.5C0 30.2771 8.72145 39 19.5 39C30.2771 39 39 30.2785 39 19.5C39 8.7229 30.2785 0 19.5 0ZM19.5 35.9531C10.4068 35.9531 3.04688 28.5944 3.04688 19.5C3.04688 10.4068 10.4056 3.04688 19.5 3.04688C28.5932 3.04688 35.9531 10.4056 35.9531 19.5C35.9531 28.5932 28.5944 35.9531 19.5 35.9531Z" fill="black"/>
<path d="M19.5 9.78809C16.1399 9.78809 13.4062 12.5217 13.4062 15.8818C13.4062 16.7232 14.0883 17.4053 14.9297 17.4053C15.7711 17.4053 16.4531 16.7232 16.4531 15.8818C16.4531 14.2018 17.82 12.835 19.5 12.835C21.18 12.835 22.5469 14.2018 22.5469 15.8818C22.5469 17.5619 21.18 18.9287 19.5 18.9287C18.6586 18.9287 17.9766 19.6108 17.9766 20.4521V24.2607C17.9766 25.1021 18.6586 25.7842 19.5 25.7842C20.3414 25.7842 21.0234 25.1021 21.0234 24.2607V21.7828C23.6488 21.1046 25.5938 18.7161 25.5938 15.8818C25.5938 12.5217 22.8601 9.78809 19.5 9.78809Z" fill="black"/>
</svg>
